# xmcd
#
# Track frame offsets: 
#        150
#        15913
#        35734
#        48125
#        69525
#        81454
#        102991
#        117462
#        141685
#        154585
#        171777
#        186580
#
# Disc length: 2750 seconds
#
# Revision: 0
# Processed by: cddbd v1.5.2PL0 Copyright (c) Steve Scherf et al.
# Submitted via: ExactAudioCopyFreeDBPlugin 1.0
#
DISCID=a90abc0c
DTITLE=The Mystery Of The Bulgarian Voices - BooCheeMish
DYEAR=2018
DGENRE=World
TTITLE0=Mome Malenko
TTITLE1=Pora Sotunda
TTITLE2=Rano Ranila
TTITLE3=Mani Yanni
TTITLE4=Yove
TTITLE5=Sluntse
TTITLE6=Unison
TTITLE7=Zableyalo Agne
TTITLE8=Tropanitsa
TTITLE9=Ganka
TTITLE10=Shandai Ya
TTITLE11=Stanka
EXTD=
EXTT0=
EXTT1=
EXTT2=
EXTT3=
EXTT4=
EXTT5=
EXTT6=
EXTT7=
EXTT8=
EXTT9=
EXTT10=
EXTT11=
PLAYORDER=
